<svg viewBox="0 0 1024 1024" xmlns="http://www.w3.org/2000/svg" id="图层_1"><defs><style>.cls-1{fill:#ffaa50;}.cls-2{fill:#415050;}.cls-3{fill:#fac855;}.cls-4{fill:#fff;}.cls-5{fill:#c10a54;}.cls-6{fill:#b9cdd2;}.cls-7{fill:#596c70;}.cls-8{fill:#738c96;}.cls-9{fill:#d82e3d;}</style></defs><circle r="394.09" cy="517.91" cx="512" class="cls-1"></circle><path d="M512,912c174.06,0,321.75-112.85,373.93-269.38C684.77,674.23,450.07,510.48,450.07,510.48,324.57,556,206,511.29,122.27,459.2a397.44,397.44,0,0,0-4.36,58.71C117.91,735.56,294.35,912,512,912Z" class="cls-2"></path><path d="M512,123.82a392.42,392.42,0,0,0-182.72,44.86,377.51,377.51,0,0,0-8.83,81.24c0,207.61,168.3,375.91,375.91,375.91a374.12,374.12,0,0,0,207.07-62.16,399.52,399.52,0,0,0,2.66-45.76C906.09,300.26,729.65,123.82,512,123.82Z" class="cls-3"></path><path d="M824.05,470.42A108.39,108.39,0,0,0,664.57,323.77a76,76,0,0,0-139,34.12,59.33,59.33,0,0,0-22,115.21l65.72,23.3L604.81,509,632,518.61l62.29,22.09,59.22,21a22.31,22.31,0,0,0,2.21.66c.71.28,1.4.62,2.13.88a59.29,59.29,0,0,0,66.21-92.82Z" class="cls-4"></path><path d="M730.79,614.1c.91,1.95,1.81,3.89,2.72,5.82C732.6,618,731.7,616.05,730.79,614.1Z" class="cls-5"></path><path d="M722,595.15q3.81,8.29,7.64,16.53Q725.84,603.46,722,595.15Z" class="cls-5"></path><path d="M710.69,570.3l2.22,4.9Z" class="cls-5"></path><path d="M718.22,586.87l3,6.59Z" class="cls-5"></path><path d="M382,298.77c.31-1.08.66-2.15,1-3.2C382.64,296.62,382.29,297.69,382,298.77Z" class="cls-5"></path><path d="M734.76,622.59Q736,625.3,737.3,628,736,625.3,734.76,622.59Z" class="cls-5"></path><path d="M714.43,578.56c.84,1.83,1.67,3.67,2.51,5.5C716.1,582.23,715.27,580.39,714.43,578.56Z" class="cls-5"></path><path d="M742.64,639.26l2.28,4.77Z" class="cls-5"></path><path d="M746.52,647.37l2.19,4.54Z" class="cls-5"></path><path d="M750.35,655.31c.72,1.48,1.43,3,2.15,4.42C751.78,658.27,751.07,656.79,750.35,655.31Z" class="cls-5"></path><path d="M761.67,678.38l2.1,4.22Z" class="cls-5"></path><path d="M649.32,385.14A33.21,33.21,0,0,1,644,388,33.21,33.21,0,0,0,649.32,385.14Z" class="cls-5"></path><path d="M328.65,372.61q.92-2.46,2.06-4.79Q329.57,370.15,328.65,372.61Z" class="cls-5"></path><path d="M754.13,663.09l2.16,4.4Z" class="cls-5"></path><path d="M738.76,631.07l2.37,5Z" class="cls-5"></path><path d="M765.4,685.84q1.05,2.1,2.1,4.17Q766.45,687.94,765.4,685.84Z" class="cls-5"></path><path d="M706.93,562c.69,1.54,1.39,3.09,2.09,4.63C708.32,565.05,707.62,563.5,706.93,562Z" class="cls-5"></path><path d="M667.94,473.23l1.38,3.2Z" class="cls-5"></path><path d="M665,466.33l1,2.25Z" class="cls-5"></path><path d="M609.3,333a33,33,0,0,1,8.7-5.56A33,33,0,0,0,609.3,333Z" class="cls-5"></path><path d="M477.89,290q1,2.06,1.85,4.22Q478.92,292.06,477.89,290Z" class="cls-5"></path><path d="M703.2,553.64q1,2.29,2.06,4.59Q704.23,555.94,703.2,553.64Z" class="cls-5"></path><path d="M769.08,693.14l2.12,4.16Z" class="cls-5"></path><path d="M647.44,425.1l.27.63Z" class="cls-5"></path><path d="M588,318.47h0a22.87,22.87,0,0,1,13.76,4.61A22.87,22.87,0,0,0,588,318.47Z" class="cls-5"></path><path d="M662.39,460.3l.24.55Z" class="cls-5"></path><path d="M636.32,398.6c.48,1.14.95,2.28,1.44,3.44C637.27,400.88,636.8,399.74,636.32,398.6Z" class="cls-5"></path><path d="M653.57,381.85c-.12.12-.27.22-.4.34C653.3,382.07,653.45,382,653.57,381.85Z" class="cls-5"></path><path d="M644.61,418.38l.21.5Z" class="cls-5"></path><path d="M633,390.52l2.37,5.69Z" class="cls-5"></path><path d="M639,405.1c.36.87.72,1.74,1.09,2.61C639.76,406.84,639.4,406,639,405.1Z" class="cls-5"></path><path d="M660.12,373.44c-.38.7-.79,1.38-1.23,2.05C659.33,374.82,659.74,374.14,660.12,373.44Z" class="cls-5"></path><path d="M671.2,480.8c.5,1.16,1,2.32,1.51,3.48C672.2,483.12,671.7,482,671.2,480.8Z" class="cls-5"></path><path d="M695.79,537l2,4.53Z" class="cls-5"></path><path d="M402.86,270.09c1.1-.75,2.25-1.45,3.41-2.12C405.11,268.64,404,269.34,402.86,270.09Z" class="cls-5"></path><path d="M692.17,528.83q1,2.17,1.93,4.37Q693.13,531,692.17,528.83Z" class="cls-5"></path><path d="M435.69,261.38l.9.08Z" class="cls-5"></path><path d="M699.48,545.32q1,2.25,2,4.52Q700.48,547.58,699.48,545.32Z" class="cls-5"></path><path d="M392,279.93q1.58-1.89,3.31-3.61Q393.56,278,392,279.93Z" class="cls-5"></path><path d="M474.44,284.06q1.28,1.89,2.39,3.9Q475.72,286,474.44,284.06Z" class="cls-5"></path><path d="M678,496.41l1.68,3.88Z" class="cls-5"></path><path d="M688.58,520.69c.61,1.38,1.21,2.76,1.82,4.13C689.79,523.45,689.19,522.07,688.58,520.69Z" class="cls-5"></path><path d="M681.46,504.44l1.77,4.05Z" class="cls-5"></path><path d="M674.54,488.51l1.65,3.82Z" class="cls-5"></path><path d="M447.58,263.73l.32.12Z" class="cls-5"></path><path d="M685,512.46l1.81,4.14Z" class="cls-5"></path><path d="M757.9,670.77l2.13,4.31Z" class="cls-5"></path><path d="M813,772.21h0l-1.27-2Z" class="cls-5"></path><path d="M801.87,753.88l2.18,3.71Z" class="cls-5"></path><path d="M473.13,282.19a51.76,51.76,0,0,0-23.06-17.57A51.76,51.76,0,0,1,473.13,282.19Z" class="cls-5"></path><path d="M798.13,747.41c.89,1.55,1.77,3.09,2.64,4.59C799.9,750.5,799,749,798.13,747.41Z" class="cls-5"></path><path d="M794,740.16q1.72,3.08,3.42,6.05Q795.74,743.24,794,740.16Z" class="cls-5"></path><path d="M805.31,759.69l2,3.25Z" class="cls-5"></path><path d="M808.6,765.11c.61,1,1.22,2,1.83,3C809.82,767.11,809.21,766.11,808.6,765.11Z" class="cls-5"></path><path d="M642,412.24l-.21-.49.06.14Z" class="cls-5"></path><path d="M662.34,368.57a33.17,33.17,0,0,0,1.79-13.23,32.3,32.3,0,0,0-4.57-14.52,32.3,32.3,0,0,1,4.57,14.52A33.17,33.17,0,0,1,662.34,368.57Z" class="cls-5"></path><path d="M656,336a33.24,33.24,0,0,0-4.34-4.13A33.24,33.24,0,0,1,656,336Z" class="cls-5"></path><path d="M790.59,734q1.54,2.82,3.08,5.56Q792.14,736.79,790.59,734Z" class="cls-5"></path><path d="M780,714.28c.72,1.38,1.44,2.73,2.16,4.08C781.45,717,780.73,715.66,780,714.28Z" class="cls-5"></path><path d="M325.54,393.83a51.91,51.91,0,0,1,2.26-18.74,51.6,51.6,0,0,0,22.59,59.63h0A51.77,51.77,0,0,1,325.54,393.83Z" class="cls-5"></path><path d="M776.41,707.4c.7,1.36,1.4,2.7,2.11,4C777.81,710.1,777.11,708.76,776.41,707.4Z" class="cls-5"></path><path d="M783.58,721l2.21,4.13Z" class="cls-5"></path><path d="M772.76,700.34c.7,1.37,1.41,2.73,2.11,4.09C774.17,703.07,773.46,701.71,772.76,700.34Z" class="cls-5"></path><path d="M787.11,727.58l2.38,4.38Z" class="cls-5"></path><path d="M435.69,261.38c-1.49-.12-3-.18-4.54-.17A51,51,0,0,0,406.27,268a51,51,0,0,1,24.88-6.76C432.68,261.2,434.2,261.26,435.69,261.38Z" class="cls-5"></path><path d="M358.67,342.33q2.46-.93,5-1.62Q361.13,341.4,358.67,342.33Z" class="cls-5"></path><path d="M436.59,261.46a51.18,51.18,0,0,1,11,2.27A51.18,51.18,0,0,0,436.59,261.46Z" class="cls-5"></path><path d="M343.22,351.59c-1.3,1.13-2.53,2.32-3.71,3.56C340.69,353.91,341.92,352.72,343.22,351.59Z" class="cls-5"></path><path d="M383,295.57c.38-1.06.78-2.11,1.23-3.13C383.8,293.46,383.4,294.51,383,295.57Z" class="cls-5"></path><path d="M382,298.77a50.57,50.57,0,0,0-2,13.31,51.28,51.28,0,0,0,6,24.9,51.28,51.28,0,0,1-6-24.9A50.57,50.57,0,0,1,382,298.77Z" class="cls-5"></path><path d="M351.62,345.65a51,51,0,0,1,7.05-3.32A51,51,0,0,0,351.62,345.65Z" class="cls-5"></path><path d="M398.93,273a49,49,0,0,1,3.93-2.94A49,49,0,0,0,398.93,273Z" class="cls-5"></path><path d="M230.59,242.07a176.09,176.09,0,0,1,45.68,1.4A11.82,11.82,0,0,1,272,266.72c-.49-.09-25.89-4.55-51.59.79a97,97,0,0,0,1.72,14A53.17,53.17,0,0,0,232.84,383.2c.69.12,1.37.17,2.06.26s1.33.34,2,.46l55.5,9.73,58.39,10.23,25.47,4.46,33.25,5.83L471.14,425a53.22,53.22,0,0,0,33.68-99.66,68.15,68.15,0,0,0-93.48-88,97.21,97.21,0,0,0-77.11-70.52l-1.09-.16A394.92,394.92,0,0,0,230.59,242.07Z" class="cls-6"></path><path d="M330.71,367.82q1.16-2.34,2.52-4.53Q331.87,365.48,330.71,367.82Z" class="cls-5"></path><path d="M447.9,263.85c.73.24,1.45.5,2.17.77C449.35,264.35,448.63,264.09,447.9,263.85Z" class="cls-5"></path><path d="M334.65,361.14q1.47-2.11,3.14-4.07Q336.13,359,334.65,361.14Z" class="cls-5"></path><path d="M343.22,351.59a51.79,51.79,0,0,1,6.19-4.61A51.79,51.79,0,0,0,343.22,351.59Z" class="cls-5"></path><path d="M443.34,318.47s90.41-2.26,98.58,0a33,33,0,0,0-59.23-12.92,51.71,51.71,0,0,0-2.95-11.33q-.83-2.16-1.85-4.22c-.34-.69-.7-1.37-1.06-2q-1.11-2-2.39-3.9c-.42-.64-.86-1.26-1.31-1.87a51.76,51.76,0,0,0-23.06-17.57c-.72-.27-1.44-.53-2.17-.77l-.32-.12a51.18,51.18,0,0,0-11-2.27l-.9-.08c-1.49-.12-3-.18-4.54-.17A51,51,0,0,0,406.27,268c-1.16.67-2.31,1.37-3.41,2.12a49,49,0,0,0-3.93,2.94c-1.26,1-2.47,2.13-3.63,3.29s-2.26,2.35-3.31,3.61a51.9,51.9,0,0,0-7.74,12.51c-.45,1-.85,2.07-1.23,3.13s-.73,2.12-1,3.2a50.57,50.57,0,0,0-2,13.31,51.28,51.28,0,0,0,6,24.9c.56,1.06,1.16,2.1,1.8,3.11A52.23,52.23,0,0,0,377,339a51.63,51.63,0,0,0-13.36,1.75q-2.55.69-5,1.62a51,51,0,0,0-7.05,3.32c-.75.42-1.49.87-2.21,1.33a51.79,51.79,0,0,0-6.19,4.61c-1.3,1.13-2.53,2.32-3.71,3.56-.59.63-1.16,1.26-1.72,1.92q-1.67,1.95-3.14,4.07c-.49.7-1,1.42-1.42,2.15q-1.37,2.19-2.52,4.53t-2.06,4.79c-.3.82-.59,1.64-.85,2.48a51.6,51.6,0,0,0,22.59,59.63l19.81-33.45.63-1.06c102.46,3.77,67.8,15.07,139.37,152.18a356,356,0,0,1,18.4,41c41.07,110.86-13,171.49-108,191-57.8,11.89-89.5,45.86-106.39,74.36A394.69,394.69,0,0,0,673.5,877.48c-57.6-75.6-76.36-239.35-101.33-366.9C537.51,333.53,443.34,318.47,443.34,318.47Z" class="cls-5"></path><path d="M277.73,834.82l37.79-135.36c-38.47,8.26-10.48-118.1,30.73-171.18C367,501.54,373,469.21,373.45,442c-1.13-.07-2.27-.15-3.42-.31a50.72,50.72,0,0,1-16.74-5.32l-.21-.1c-.92-.48-1.8-1-2.69-1.56L177.6,726.48A396.36,396.36,0,0,0,277.73,834.82Z" class="cls-7"></path><path d="M350.39,434.72c.89.53,1.77,1.08,2.69,1.56-.92-.48-1.8-1-2.69-1.56Z" class="cls-7"></path><path d="M370,441.7a50.72,50.72,0,0,1-16.74-5.32A50.72,50.72,0,0,0,370,441.7c1.15.16,2.29.24,3.42.31h0C372.32,441.94,371.18,441.86,370,441.7Z" class="cls-7"></path><path d="M353.29,436.38l-.21-.1Z" class="cls-7"></path><path d="M420.55,784.43c95.1-19.56,149.12-80.19,108.05-191-17.91-7.58-42-14.43-72.73-16.5-61.5-4.15-57.39,57.58-120.92,111.31-7.79,6.59-14.21,10.15-19.43,11.27L277.73,834.82a395.12,395.12,0,0,0,36.43,24C331.05,830.29,362.75,796.32,420.55,784.43Z" class="cls-7"></path><path d="M373.45,442a221.77,221.77,0,0,0-3.25-40.74l-19.81,33.45c.89.53,1.77,1.08,2.69,1.56l.21.1A50.72,50.72,0,0,0,370,441.7C371.18,441.86,372.32,441.94,373.45,442Z" class="cls-7"></path><path d="M379,442.14a52.27,52.27,0,0,1-5.58-.13c-.42,27.2-6.43,59.53-27.2,86.27-41.21,53.08-69.2,179.44-30.73,171.18l72.12-258.38A52.91,52.91,0,0,1,379,442.14Z" class="cls-8"></path><path d="M379,442.14a52.27,52.27,0,0,1-5.58-.13h0A52.27,52.27,0,0,0,379,442.14Z" class="cls-8"></path><path d="M387.64,441.08a52.91,52.91,0,0,1-8.61,1.06A52.91,52.91,0,0,0,387.64,441.08Z" class="cls-8"></path><path d="M455.87,576.88c30.77,2.07,54.82,8.92,72.73,16.5a356,356,0,0,0-18.4-41C438.63,415.28,473.29,404,370.83,400.21l-.63,1.06A221.77,221.77,0,0,1,373.45,442a52.27,52.27,0,0,0,5.58.13,52.91,52.91,0,0,0,8.61-1.06L315.52,699.46c5.22-1.12,11.64-4.68,19.43-11.27C398.48,634.46,394.37,572.73,455.87,576.88Z" class="cls-8"></path><path d="M722.69,851q3-1.9,6-3.87a414.76,414.76,0,0,1-56.54-73.46C601.63,658,586.93,519,584.47,445.91A53.83,53.83,0,0,1,633,390.52l-48.35,4.79S559.39,702.42,722.69,851Z" class="cls-9"></path><path d="M662.34,368.57a32.46,32.46,0,0,1-2.22,4.87A32.46,32.46,0,0,0,662.34,368.57Z" class="cls-9"></path><path d="M653.17,382.19a33.54,33.54,0,0,1-3.85,2.95A33.54,33.54,0,0,0,653.17,382.19Z" class="cls-9"></path><path d="M618,327.46a32.94,32.94,0,0,1,13.91-2.81A32.94,32.94,0,0,0,618,327.46Z" class="cls-9"></path><path d="M639.56,389.51a32.76,32.76,0,0,1-6.61,1A32.76,32.76,0,0,0,639.56,389.51Z" class="cls-9"></path><path d="M638.1,325.38a32.94,32.94,0,0,1,13.57,6.45A32.94,32.94,0,0,0,638.1,325.38Z" class="cls-9"></path><path d="M644,388a33,33,0,0,1-4.39,1.52A33,33,0,0,0,644,388Z" class="cls-9"></path><path d="M609.19,332.74c0,.09.07.19.11.28,0-.09-.07-.19-.11-.28a22.83,22.83,0,0,0-7.44-9.66A22.83,22.83,0,0,1,609.19,332.74Z" class="cls-9"></path><path d="M658.89,375.49a33.09,33.09,0,0,1-5.32,6.36A33.09,33.09,0,0,0,658.89,375.49Z" class="cls-9"></path><path d="M584.6,395.31,633,390.52A31.23,31.23,0,0,0,644,388a33,33,0,0,0,9.22-5.8c.13-.12.28-.22.4-.34a33.09,33.09,0,0,0,5.32-6.36c.44-.67.85-1.35,1.23-2.05a32.46,32.46,0,0,0,2.22-4.87,33.17,33.17,0,0,0,1.79-13.23,32.3,32.3,0,0,0-4.57-14.52,33.41,33.41,0,0,0-21.46-15.44,32.53,32.53,0,0,0-6.19-.73A33.39,33.39,0,0,0,609.3,333c0-.09-.07-.19-.11-.28A22.92,22.92,0,0,0,588,318.47H541.92c-8.17-2.26-98.58,0-98.58,0s94.17,15.06,128.83,192.11c25,127.55,43.73,291.3,101.33,366.9A392.59,392.59,0,0,0,722.69,851C559.39,702.42,584.6,395.31,584.6,395.31Z" class="cls-9"></path><path d="M760,675.08c.55,1.11,1.09,2.21,1.64,3.3C761.12,677.29,760.58,676.19,760,675.08Z" class="cls-8"></path><path d="M763.77,682.6l1.63,3.24Z" class="cls-8"></path><path d="M767.5,690l1.58,3.13Z" class="cls-8"></path><path d="M756.29,667.49c.53,1.1,1.07,2.19,1.61,3.28C757.36,669.68,756.82,668.59,756.29,667.49Z" class="cls-8"></path><path d="M771.2,697.3l1.56,3Z" class="cls-8"></path><path d="M744.92,644c.53,1.11,1.07,2.22,1.6,3.34C746,646.25,745.45,645.14,744.92,644Z" class="cls-8"></path><path d="M737.3,628c.49,1,1,2,1.46,3.07C738.27,630,737.79,629,737.3,628Z" class="cls-8"></path><path d="M741.13,636.08l1.51,3.18Z" class="cls-8"></path><path d="M752.5,659.73c.54,1.13,1.09,2.24,1.63,3.36C753.59,662,753,660.86,752.5,659.73Z" class="cls-8"></path><path d="M774.87,704.43c.51,1,1,2,1.54,3C775.89,706.42,775.38,705.42,774.87,704.43Z" class="cls-8"></path><path d="M748.71,651.91c.54,1.14,1.09,2.27,1.64,3.4C749.8,654.18,749.25,653.05,748.71,651.91Z" class="cls-8"></path><path d="M789.49,732c.37.67.73,1.35,1.1,2C790.22,733.31,789.86,732.63,789.49,732Z" class="cls-8"></path><path d="M800.77,752l1.1,1.88Z" class="cls-8"></path><path d="M797.44,746.21c.23.41.46.8.69,1.2C797.9,747,797.67,746.62,797.44,746.21Z" class="cls-8"></path><path d="M804.05,757.59l1.26,2.1Z" class="cls-8"></path><path d="M807.26,762.94l1.34,2.17Z" class="cls-8"></path><path d="M810.43,768.08c.45.72.9,1.42,1.34,2.14C811.33,769.5,810.88,768.8,810.43,768.08Z" class="cls-8"></path><path d="M733.51,619.92l1.25,2.67Z" class="cls-8"></path><path d="M793.67,739.53c.12.2.24.42.35.63C793.91,740,793.79,739.74,793.67,739.53Z" class="cls-8"></path><path d="M782.17,718.36l1.41,2.66Z" class="cls-8"></path><path d="M785.79,725.15l1.32,2.43Z" class="cls-8"></path><path d="M778.52,711.44c.49.95,1,1.91,1.49,2.84C779.51,713.35,779,712.39,778.52,711.44Z" class="cls-8"></path><path d="M683.23,508.49l1.74,4Z" class="cls-8"></path><path d="M686.78,516.6l1.8,4.09Z" class="cls-8"></path><path d="M665.94,468.58l2,4.65Z" class="cls-8"></path><path d="M672.71,484.28c.6,1.41,1.22,2.82,1.83,4.23C673.93,487.1,673.31,485.68,672.71,484.28Z" class="cls-8"></path><path d="M679.65,500.29c.6,1.38,1.21,2.76,1.81,4.15C680.86,503.05,680.25,501.67,679.65,500.29Z" class="cls-8"></path><path d="M676.19,492.33c.59,1.36,1.18,2.72,1.78,4.08C677.37,495.05,676.78,493.69,676.19,492.33Z" class="cls-8"></path><path d="M669.32,476.43l1.88,4.37Z" class="cls-8"></path><path d="M662.63,460.85q1.17,2.73,2.35,5.48Q663.8,463.59,662.63,460.85Z" class="cls-8"></path><path d="M644.82,418.88c.86,2.05,1.74,4.12,2.62,6.22C646.56,423,645.68,420.93,644.82,418.88Z" class="cls-8"></path><path d="M642,412.24l2.58,6.14Z" class="cls-8"></path><path d="M647.71,425.73c4.65,11,9.56,22.59,14.68,34.57C657.27,448.32,652.36,436.75,647.71,425.73Z" class="cls-8"></path><path d="M690.4,524.82l1.77,4Z" class="cls-8"></path><path d="M709,566.59l1.67,3.71Z" class="cls-8"></path><path d="M712.91,575.2c.51,1.12,1,2.24,1.52,3.36C713.93,577.44,713.42,576.32,712.91,575.2Z" class="cls-8"></path><path d="M721.24,593.46l.78,1.69Z" class="cls-8"></path><path d="M716.94,584.06c.43.93.85,1.87,1.28,2.81C717.79,585.93,717.37,585,716.94,584.06Z" class="cls-8"></path><path d="M705.26,558.23c.55,1.24,1.11,2.49,1.67,3.73C706.37,560.72,705.81,559.47,705.26,558.23Z" class="cls-8"></path><path d="M701.5,549.84l1.7,3.8Z" class="cls-8"></path><path d="M694.1,533.2c.56,1.27,1.12,2.54,1.69,3.81C695.22,535.74,694.66,534.47,694.1,533.2Z" class="cls-8"></path><path d="M697.8,541.54l1.68,3.78Z" class="cls-8"></path><path d="M729.66,611.68c.38.81.75,1.62,1.13,2.42C730.41,613.3,730,612.49,729.66,611.68Z" class="cls-8"></path><path d="M810.43,768.08c-.61-1-1.22-2-1.83-3l-1.34-2.17-2-3.25-1.26-2.1-2.18-3.71-1.1-1.88c-.87-1.5-1.75-3-2.64-4.59-.23-.4-.46-.79-.69-1.2q-1.7-3-3.42-6.05c-.11-.21-.23-.43-.35-.63q-1.53-2.74-3.08-5.56c-.37-.66-.73-1.34-1.1-2l-2.38-4.38-1.32-2.43L783.58,721l-1.41-2.66c-.72-1.35-1.44-2.7-2.16-4.08-.5-.93-1-1.89-1.49-2.84-.71-1.34-1.41-2.68-2.11-4-.52-1-1-2-1.54-3-.7-1.36-1.41-2.72-2.11-4.09l-1.56-3-2.12-4.16L767.5,690q-1.05-2.07-2.1-4.17l-1.63-3.24-2.1-4.22c-.55-1.09-1.09-2.19-1.64-3.3l-2.13-4.31c-.54-1.09-1.08-2.18-1.61-3.28l-2.16-4.4c-.54-1.12-1.09-2.23-1.63-3.36-.72-1.46-1.43-2.94-2.15-4.42-.55-1.13-1.1-2.26-1.64-3.4l-2.19-4.54c-.53-1.12-1.07-2.23-1.6-3.34l-2.28-4.77-1.51-3.18-2.37-5c-.49-1-1-2.05-1.46-3.07q-1.26-2.7-2.54-5.41l-1.25-2.67c-.91-1.93-1.81-3.87-2.72-5.82-.38-.8-.75-1.61-1.13-2.42q-3.82-8.22-7.64-16.53l-.78-1.69-3-6.59c-.43-.94-.85-1.88-1.28-2.81-.84-1.83-1.67-3.67-2.51-5.5-.5-1.12-1-2.24-1.52-3.36l-2.22-4.9L709,566.59c-.7-1.54-1.4-3.09-2.09-4.63-.56-1.24-1.12-2.49-1.67-3.73q-1-2.29-2.06-4.59l-1.7-3.8q-1-2.26-2-4.52l-1.68-3.78-2-4.53c-.57-1.27-1.13-2.54-1.69-3.81q-1-2.19-1.93-4.37l-1.77-4c-.61-1.37-1.21-2.75-1.82-4.13l-1.8-4.09L685,512.46l-1.74-4-1.77-4.05c-.6-1.39-1.21-2.77-1.81-4.15L678,496.41c-.6-1.36-1.19-2.72-1.78-4.08l-1.65-3.82c-.61-1.41-1.23-2.82-1.83-4.23-.51-1.16-1-2.32-1.51-3.48l-1.88-4.37-1.38-3.2-2-4.65-1-2.25q-1.18-2.74-2.35-5.48l-.24-.55c-5.12-12-10-23.55-14.68-34.57l-.27-.63c-.88-2.1-1.76-4.17-2.62-6.22l-.21-.5L642,412.24l-.15-.35c-8.06,11.37-11.77,33.17-5.3,72.7,15.6,95.3,55.09,235.75,41.1,279.3a480.07,480.07,0,0,0,55.94,79.92A396,396,0,0,0,813,772.21l-1.26-2C811.33,769.5,810.88,768.8,810.43,768.08Z" class="cls-8"></path><path d="M672.11,773.66a414.76,414.76,0,0,0,56.54,73.46c1.66-1.09,3.33-2.19,5-3.31a480.07,480.07,0,0,1-55.94-79.92C676.34,768.08,674.51,771.39,672.11,773.66Z" class="cls-8"></path><path d="M640.13,407.71l1.69,4Z" class="cls-7"></path><path d="M637.76,402c.42,1,.85,2,1.28,3.06C638.61,404.08,638.18,403.06,637.76,402Z" class="cls-7"></path><path d="M635.32,396.21c.33.79.67,1.59,1,2.39C636,397.8,635.65,397,635.32,396.21Z" class="cls-7"></path><path d="M677.68,763.89c14-43.55-25.5-184-41.1-279.3-6.47-39.53-2.76-61.33,5.3-72.7l-.06-.14-1.69-4c-.37-.87-.73-1.74-1.09-2.61-.43-1-.86-2-1.28-3.06s-1-2.3-1.44-3.44c-.33-.8-.67-1.6-1-2.39L633,390.52l-21,49.71S589.24,605.51,677.68,763.89Z" class="cls-7"></path><path d="M584.47,445.91C586.93,519,601.63,658,672.11,773.66c2.4-2.27,4.23-5.58,5.57-9.77C589.24,605.51,612,440.23,612,440.23l21-49.71A53.83,53.83,0,0,0,584.47,445.91Z" class="cls-7"></path><path d="M253.18,497.08l-43.74-25.25c-9.33-5.4-14.15-17.82-10.69-27.6l6.95-19.65-30.55,12c-10.93,4.31-14.55,19.32-7.7,31.9l22.94,42.05c6.33,11.61,19.08,16.41,28.31,10.65l36.85-23A18.38,18.38,0,0,1,253.18,497.08Z" class="cls-7"></path><path d="M265.54,461.22,243.38,428.8c-6-8.84-16-12.75-24.22-9.51l-13.46,5.29-6.95,19.65c-3.46,9.78,1.36,22.2,10.69,27.6l43.74,25.25a18.38,18.38,0,0,0,2.37,1.15l6.38-4C271.74,488.14,273.42,472.76,265.54,461.22Z" class="cls-8"></path><path d="M799.17,151.17l-45.5,21.91c-9.72,4.68-22.7,1.66-28.83-6.7l-12.32-16.81-7.26,32c-2.6,11.46,7.76,22.91,22,24.32l47.66,4.74c13.16,1.3,24.3-6.53,24.75-17.4l1.76-43.4A17.42,17.42,0,0,1,799.17,151.17Z" class="cls-7"></path><path d="M776.5,120.76l-39.28,0c-10.71,0-19.54,6-21.5,14.66l-3.2,14.1,12.32,16.81c6.13,8.36,19.11,11.38,28.83,6.7l45.5-21.91a17.42,17.42,0,0,0,2.28-1.32l.31-7.5C802.23,130.79,790.47,120.74,776.5,120.76Z" class="cls-8"></path><path d="M512,273a11.82,11.82,0,0,1-11.82-11.82V210a11.82,11.82,0,1,1,23.64,0v51.23A11.82,11.82,0,0,1,512,273Z" class="cls-9"></path><path d="M512,179.45a11.83,11.83,0,0,1-11.82-11.83v-21a11.82,11.82,0,0,1,23.64,0v21A11.83,11.83,0,0,1,512,179.45Z" class="cls-9"></path><path d="M588,280.85a11.82,11.82,0,0,1-11.62-9.73c-.3-1.67-7.19-41.32,8.32-67.76a11.83,11.83,0,0,1,20.4,12c-9.18,15.65-7,42.57-5.44,51.62a11.83,11.83,0,0,1-9.57,13.71A12.4,12.4,0,0,1,588,280.85Z" class="cls-9"></path><path d="M613.65,185.66a11.69,11.69,0,0,1-4.2-.78,11.82,11.82,0,0,1-6.85-15.22c.81-2.14,20.31-52.35,65.36-57.58a11.82,11.82,0,0,1,2.72,23.49c-30.67,3.56-45.83,42.1-46,42.49A11.85,11.85,0,0,1,613.65,185.66Z" class="cls-9"></path><path d="M659.46,294,649.32,288l-10.24-5.91c.76-1.31,19.17-32.13,70.41-30.13a11.82,11.82,0,1,1-1,23.62C672.31,274.1,660,293.21,659.46,294Z" class="cls-9"></path><path d="M835.71,280.17a11.76,11.76,0,0,1-6.42-1.9c-31-20.08-78.68-11.64-79.16-11.55a11.82,11.82,0,0,1-4.31-23.25c2.32-.43,57.35-10.3,96.33,15a11.82,11.82,0,0,1-6.44,21.74Z" class="cls-9"></path><path d="M434.12,280.85a12.5,12.5,0,0,1-2.1-.18A11.82,11.82,0,0,1,422.47,267h0c1.6-9.05,3.74-36-5.44-51.62a11.82,11.82,0,0,1,20.39-12c15.52,26.44,8.63,66.09,8.32,67.76A11.82,11.82,0,0,1,434.12,280.85Z" class="cls-9"></path><path d="M362.63,294c-.5-.82-12.86-20-49.08-18.49a11.82,11.82,0,1,1-.95-23.62c51.24-2,69.66,28.81,70.42,30.13l-20.48,11.82Z" class="cls-9"></path><path d="M397.4,178.06a11.82,11.82,0,0,0,22.1-8.4,115.17,115.17,0,0,0-18.08-30.08q-12.63,3.67-24.89,8.15C390.38,160.26,397.3,177.8,397.4,178.06Z" class="cls-9"></path><path d="M220.79,252.4q-9,9.82-17.25,20.25a91.42,91.42,0,0,1,16.83-5.14A95.78,95.78,0,0,1,220.79,252.4Z" class="cls-9"></path><path d="M272,266.72a11.82,11.82,0,0,0,4.31-23.25,176.09,176.09,0,0,0-45.68-1.4c-3.33,3.39-6.6,6.82-9.8,10.33a95.78,95.78,0,0,0-.42,15.11C246.07,262.17,271.47,266.63,272,266.72Z" class="cls-9"></path></svg>