<?xml version="1.0" encoding="UTF-8"?><svg version="1.1" width="343px" height="343px" viewBox="0 0 343.0 343.0" xmlns="http://www.w3.org/2000/svg" xmlns:xlink="http://www.w3.org/1999/xlink"><defs><filter id="i0" x="-20.0800943%" y="-15.4036333%" filterUnits="userSpaceOnUse" width="127.996097%" height="114.576494%"><feGaussianBlur stdDeviation="5" in="SourceAlpha" result="i1"></feGaussianBlur><feOffset dx="2" dy="2" in="i1" result="i2"></feOffset><feColorMatrix values="0 0 0 0.203921568627451 0 0 0 0 0.28627450980392155 0 0 0 0 0.5254901960784314 0 0 0 0 0.5044570602737106 0" type="matrix" in="i2"></feColorMatrix></filter><filter id="i3" x="-86.4008511%" y="-10.5119821%" filterUnits="userSpaceOnUse" width="182.641973%" height="114.689752%"><feGaussianBlur stdDeviation="5" in="SourceAlpha" result="i4"></feGaussianBlur><feOffset dx="2" dy="2" in="i4" result="i5"></feOffset><feColorMatrix values="0 0 0 0.203921568627451 0 0 0 0 0.28627450980392155 0 0 0 0 0.5254901960784314 0 0 0 0 0.5016278887128497 0" type="matrix" in="i5"></feColorMatrix></filter></defs><g transform="translate(146.80436842397978 48.44574389776281)"><path d="M-1.5,0.0273349155 L0,0.0273349155 C41.7669006,0.0273349155 51.839858,-1.2975612 73.0204184,14.5004163 C87.0767288,24.9846184 96.9053106,41.5743767 102.506164,64.2696912 L21.9495082,116.721572 L121.347446,254.488449 L122.225099,255.704889" stroke="#000000" stroke-width="33" fill="none" stroke-miterlimit="10" filter="url(#i0)"></path><path d="M0,0.0273349155 C41.7669006,0.0273349155 51.839858,-1.2975612 73.0204184,14.5004163 C87.0767288,24.9846184 96.9053106,41.5743767 102.506164,64.2696912 L21.9495082,116.721572 L121.347446,254.488449" stroke="#344986" stroke-width="30" fill="none" stroke-miterlimit="10"></path></g><g transform="translate(96.76087159239307 33.47211700781989)"><path d="M0.740425668,-1.47211645 L0.739128408,0.0278829922 L0.5,276.527883 L0.49870274,278.027882" stroke="#000000" stroke-width="33" fill="none" stroke-miterlimit="10" filter="url(#i3)"></path><path d="M0.739128408,0.0278829922 L0.5,276.527883" stroke="#344986" stroke-width="30" fill="none" stroke-miterlimit="10"></path></g></svg>